PathFileType	4	(X/Y/Z)	C:\Users\Basilio\Documents\Thesis Gigler\squatting_fais\c3dfiles\041\SLS_pre_back3\markers_experimental.trc
DataRate	CameraRate	NumFrames	NumMarkers	Units	OrigDataRate	OrigDataStartFrame	OrigNumFrames
200.000000	200.000000	4	62	mm	200.000000	186	1490
Frame#	Time	FHD			LBHD			RBHD			C7			T10			CLAV			LSHO			LUUPA			LMUPA			LDUPA			LLEP			LMEP			LRAD			LUL			LRFIN			RSHO			RUPA1			RMUPA			RDUPA			RLEP			RMEP			RRAD			RUL			RUFIN			LASI			RASI			USACR			LSACR			RSACR			LTHI1			LTHI2			LTHI3			LTHI4			LLFC			LMFC			LTIB1			LTIB2			LTIB3			LTIB4			LLMAL			LMMAL			LHEE			LMT1			LMT2			LMT5			RTHI			RTHI2			RTHI3			RTHI4			RLFC			RMFC			RTIB1			RTIB2			RTIB3			RTIB4			RLMAL			RMMAL			RHEE			RMT1			RMT2			RMT5			*61			
		X1	Y1	Z1	X2	Y2	Z2	X3	Y3	Z3	X4	Y4	Z4	X5	Y5	Z5	X6	Y6	Z6	X7	Y7	Z7	X8	Y8	Z8	X9	Y9	Z9	X10	Y10	Z10	X11	Y11	Z11	X12	Y12	Z12	X13	Y13	Z13	X14	Y14	Z14	X15	Y15	Z15	X16	Y16	Z16	X17	Y17	Z17	X18	Y18	Z18	X19	Y19	Z19	X20	Y20	Z20	X21	Y21	Z21	X22	Y22	Z22	X23	Y23	Z23	X24	Y24	Z24	X25	Y25	Z25	X26	Y26	Z26	X27	Y27	Z27	X28	Y28	Z28	X29	Y29	Z29	X30	Y30	Z30	X31	Y31	Z31	X32	Y32	Z32	X33	Y33	Z33	X34	Y34	Z34	X35	Y35	Z35	X36	Y36	Z36	X37	Y37	Z37	X38	Y38	Z38	X39	Y39	Z39	X40	Y40	Z40	X41	Y41	Z41	X42	Y42	Z42	X43	Y43	Z43	X44	Y44	Z44	X45	Y45	Z45	X46	Y46	Z46	X47	Y47	Z47	X48	Y48	Z48	X49	Y49	Z49	X50	Y50	Z50	X51	Y51	Z51	X52	Y52	Z52	X53	Y53	Z53	X54	Y54	Z54	X55	Y55	Z55	X56	Y56	Z56	X57	Y57	Z57	X58	Y58	Z58	X59	Y59	Z59	X60	Y60	Z60	X61	Y61	Z61	X62	Y62	Z62	

187	0.93	-184.2718048095703	1778.553588867188	-1205.031616210938	-354.8375244140626	1698.83984375	-1281.391479492188	-338.7175903320313	1708.507080078125	-1129.297729492188	-384.7114868164064	1548.238037109375	-1198.364990234375	-392.340301513672	1242.8037109375	-1123.582641601563	-222.2370910644532	1499.283935546875	-1201.200805664063	-334.8125305175782	1516.733154296875	-1366.192504882813	-389.529754638672	1330.704223632813	-1441.456787109375	-351.2796020507813	1301.355590820313	-1451.787231445313	-400.3682861328126	1264.75341796875	-1460.515747070313	-405.5343017578126	1215.32861328125	-1468.890991210938	-384.1276245117189	1173.981323242188	-1393.730102539063	-226.3782653808594	1007.061157226563	-1522.254150390625	-295.6759643554688	983.877624511719	-1540.413818359375	-194.7974548339844	955.492614746094	-1572.6796875	-292.9029541015626	1567.520141601563	-1034.404541015625	-343.8491821289063	1390.630981445313	-894.0626220703127	-295.1829223632813	1387.552490234375	-881.905944824219	-316.0482482910157	1340.278076171875	-853.2808227539065	-303.3569946289063	1301.832275390625	-829.2517089843752	-311.8477783203126	1247.597534179688	-902.1480712890627	-97.55347442626956	1129.74169921875	-828.5538330078127	-145.2293395996094	1106.32958984375	-772.893005371094	-36.14669799804688	1096.367797851563	-794.2019042968752	-223.6766815185547	1045.426391601563	-1207.70947265625	-227.2017669677735	1071.301391601563	-983.322937011719	-400.9939575195314	1133.3291015625	-1101.327270507813	-417.1223754882814	1105.10888671875	-1124.43408203125	-417.7630310058595	1111.148071289063	-1070.61962890625	-339.3143920898438	838.7534790039065	-1250.127563476563	-299.1916198730469	764.0263061523439	-1240.825805664063	-251.3698425292969	770.4084472656252	-1233.436767578125	-324.4647827148438	710.5590209960939	-1225.282958984375	-303.5132751464844	532.2946777343751	-1196.950073242188	-288.5779724121094	523.9014282226564	-1078.43017578125	-286.4555664062501	343.0451049804688	-1125.713623046875	-341.2211608886719	298.7292785644532	-1181.894897460938	-302.2494812011719	294.4158020019532	-1157.773681640625	-309.5179443359376	221.1255035400391	-1116.819580078125	-377.3273010253907	124.9864883422852	-1145.555908203125	-339.7846984863282	142.8628082275391	-1066.050659179688	-443.2450561523439	112.4816284179688	-1100.274047851563	-239.2256317138672	69.37405395507814	-1058.652099609375	-228.2422637939454	56.78978347778322	-1101.130004882813	-273.0272827148438	34.38457489013673	-1156.190795898438	-325.9637145996094	820.8616943359377	-863.0267333984377	-281.1988525390626	774.059509277344	-846.8538208007815	-248.7113647460938	778.2841796875002	-851.1865844726565	-299.6172790527344	690.7103881835939	-844.0477294921877	-308.3437194824219	592.2252197265626	-836.6504516601565	-276.3366699218751	539.7420654296876	-933.3896484375002	-405.8509216308595	462.768768310547	-834.1946411132815	-513.8830566406251	476.998748779297	-864.0767211914065	-491.0353393554689	442.7411193847657	-842.2957153320315	-506.5801696777345	387.5706481933595	-859.911804199219	-634.7451782226564	352.7029724121094	-875.7244873046877	-578.4187622070314	326.1879272460938	-934.2313232421877	-676.8966674804689	367.1743164062501	-948.3845214843752	-568.9831542968751	189.4139862060547	-889.758239746094	-583.9425659179689	194.1876678466797	-840.4776000976565	-641.9830322265626	219.9664916992188	-818.5458984375002	-4217.455078125001	853.211120605469	-3944.657714843751	
188	0.9350000000000001	-183.9971923828125	1778.563354492188	-1204.728271484375	-354.6261901855469	1698.906860351563	-1281.16259765625	-338.6416625976563	1708.484619140625	-1128.937255859375	-384.6035766601564	1548.269165039063	-1198.275024414063	-392.246795654297	1242.784423828125	-1123.630126953125	-221.8913879394532	1499.04296875	-1200.994262695313	-334.5296325683594	1516.747924804688	-1366.002075195313	-388.686004638672	1330.921264648438	-1441.908447265625	-350.9809875488282	1301.668090820313	-1452.078979492188	-399.1808166503907	1264.966674804688	-1461.394897460938	-404.1550903320314	1215.668090820313	-1470.09814453125	-382.8731689453126	1174.044921875	-1394.98193359375	-224.0395202636719	1008.22265625	-1523.6162109375	-292.9673156738282	984.9287109375002	-1542.320922851563	-192.0508270263672	957.082946777344	-1573.955322265625	-292.8172607421876	1567.417114257813	-1034.2783203125	-343.1843872070313	1390.539672851563	-893.6604003906252	-294.5672912597657	1387.689208984375	-881.7317504882815	-314.8386230468751	1340.51025390625	-852.685485839844	-301.8170471191407	1302.32080078125	-828.4821777343752	-310.3324279785157	1247.727416992188	-901.3748779296877	-95.07617950439455	1130.905029296875	-828.024597167969	-142.6726837158203	1107.424560546875	-772.1671142578127	-33.84440994262696	1097.887939453125	-793.8628540039065	-223.5012359619141	1045.3896484375	-1207.594604492188	-227.2590637207032	1071.281616210938	-983.2647094726565	-400.9856262207032	1133.31005859375	-1101.417846679688	-417.0708923339845	1105.127319335938	-1124.519653320313	-417.709197998047	1111.15771484375	-1070.694091796875	-339.2265930175782	838.6605224609377	-1250.149536132813	-299.0111389160157	764.0168457031251	-1240.79052734375	-251.1949005126954	770.0278320312502	-1233.354248046875	-324.3349914550782	710.4658203125001	-1225.210205078125	-303.3815002441407	532.2687988281251	-1196.8544921875	-288.5157470703126	523.8184814453126	-1078.359008789063	-286.4166870117188	342.9741516113282	-1125.56201171875	-341.1840820312501	298.7164611816407	-1181.728271484375	-302.2652893066407	294.5774841308594	-1157.53662109375	-309.5416564941407	221.2710113525391	-1116.567993164063	-377.2774047851563	125.0839614868164	-1145.4306640625	-339.8366088867188	142.8612670898438	-1065.926635742188	-443.0232849121095	112.1496505737305	-1100.27880859375	-239.2235412597657	69.3414764404297	-1058.61376953125	-228.1764221191407	56.77436828613283	-1101.051147460938	-273.0620422363282	34.41482543945313	-1156.1982421875	-326.5635375976563	820.983825683594	-862.6898193359377	-281.3110046386719	773.9895629882815	-846.8753051757815	-248.9988708496094	778.2068481445315	-851.217468261719	-299.9852294921876	690.7439575195314	-844.078308105469	-308.7293701171876	592.3421630859376	-836.5822753906252	-276.0291137695313	539.5285034179689	-933.269958496094	-406.6496582031251	463.1710510253907	-834.5223388671877	-514.3441162109376	477.6023559570314	-864.4360961914065	-491.4085083007814	443.1836242675782	-842.7775878906252	-507.6635131835939	387.882293701172	-860.225769042969	-635.6499023437501	354.0115661621094	-876.473327636719	-579.2229003906251	327.4245300292969	-934.873474121094	-677.6336059570314	368.3568725585938	-949.3049316406252	-569.9140014648439	190.2720794677735	-890.7069091796877	-584.7622070312501	195.1632385253907	-840.656677246094	-643.1221313476564	220.9812927246094	-819.5120849609377	-4216.580078125001	853.0144042968752	-3944.720458984376	
189	0.9400000000000001	-183.9083251953125	1778.599731445313	-1204.430541992188	-354.4384460449219	1698.940673828125	-1280.884643554688	-338.5063476562501	1708.487548828125	-1128.633911132813	-384.5231018066407	1548.265014648438	-1198.094360351563	-392.2444458007814	1242.75927734375	-1123.623413085938	-221.8213500976563	1499.0068359375	-1200.7333984375	-334.2758789062501	1516.788818359375	-1365.870727539063	-387.8612365722657	1331.070434570313	-1442.362548828125	-349.4434204101563	1302.067016601563	-1452.995849609375	-398.0567321777345	1265.229370117188	-1462.258911132813	-401.9207763671876	1216.152221679688	-1471.205932617188	-381.4080200195313	1174.029541015625	-1396.27734375	-221.6536712646485	1009.475524902344	-1525.0751953125	-290.4280700683594	986.0343017578127	-1544.01025390625	-189.1546936035157	958.7976684570315	-1575.68408203125	-292.7641296386719	1567.276000976563	-1034.128051757813	-342.1411743164063	1390.55615234375	-893.2962036132815	-293.5553588867188	1387.998291015625	-881.1442871093752	-313.7344055175782	1340.721069335938	-852.2084960937502	-300.5538330078126	1302.637573242188	-827.734802246094	-308.8155822753907	1247.977172851563	-900.545349121094	-92.7442092895508	1132.373779296875	-827.493347167969	-140.0625	1108.85107421875	-771.4801025390627	-31.47536087036134	1099.397583007813	-792.946228027344	-223.5400543212891	1045.35693359375	-1207.470947265625	-227.3550720214844	1071.246704101563	-983.172058105469	-400.9456481933595	1133.331176757813	-1101.499877929688	-417.1297302246095	1105.141235351563	-1124.59716796875	-417.7749633789064	1111.157958984375	-1070.77294921875	-339.0632324218751	838.572692871094	-1250.109375	-298.9338684082032	763.9955444335939	-1240.754638671875	-250.9283752441407	769.9714355468752	-1233.242919921875	-324.2625732421876	710.5416870117189	-1225.250854492188	-303.2859802246094	532.1887817382814	-1196.771484375	-288.4598083496094	523.8078002929689	-1078.222290039063	-286.3377990722657	342.9409179687501	-1125.417358398438	-341.1108093261719	298.7192077636719	-1181.725708007813	-302.1846923828126	294.4021911621094	-1157.39111328125	-309.4631958007813	221.041732788086	-1116.624633789063	-377.2421264648438	125.1042709350586	-1145.333129882813	-339.8194885253907	142.8593139648438	-1065.809936523438	-443.2557983398439	112.4684524536133	-1100.097412109375	-239.1967773437501	69.29696655273439	-1058.55615234375	-228.1342315673829	56.77500534057619	-1101.036743164063	-273.0432434082032	34.44400024414063	-1156.145263671875	-326.7995605468751	820.9628906250002	-862.7265625000002	-281.4944458007813	774.049743652344	-846.894470214844	-249.3042144775391	778.2379150390627	-851.129089355469	-300.1450500488282	690.6437377929689	-844.0510253906252	-309.0053405761719	592.3691406250001	-836.6409912109377	-276.2705993652344	539.5722045898439	-933.257263183594	-407.2627563476564	463.3048095703126	-834.843688964844	-515.1223754882814	478.2617492675782	-864.7666015625002	-492.0618286132814	443.6704406738282	-843.121765136719	-508.1213989257814	388.2094116210939	-860.8267822265627	-636.6940917968751	354.9931335449219	-877.0931396484377	-580.0530395507814	328.2810058593751	-935.510192871094	-678.2647705078126	369.4763488769532	-949.9758911132815	-571.2490234375001	190.8820495605469	-891.3845214843752	-586.1331176757814	196.1317443847657	-841.486999511719	-644.0758666992189	221.8182067871094	-820.438903808594	-4217.250000000001	853.2504882812502	-3944.786132812501	
190	0.9450000000000001	-183.6456909179688	1778.450927734375	-1204.055053710938	-354.2083740234376	1699.003051757813	-1280.608276367188	-338.3180236816407	1708.529541015625	-1128.315185546875	-384.3972473144532	1548.308227539063	-1198.001831054688	-392.146209716797	1242.73583984375	-1123.636474609375	-221.5393524169922	1498.96923828125	-1200.563232421875	-333.8894348144532	1516.799682617188	-1365.791381835938	-387.1156005859376	1331.371826171875	-1442.909545898438	-348.9400634765626	1302.582153320313	-1453.3935546875	-396.9613037109376	1265.552856445313	-1463.088134765625	-400.7307434082032	1216.495849609375	-1472.46142578125	-380.0776977539063	1174.195922851563	-1397.555786132813	-218.9982299804688	1011.047790527344	-1526.869262695313	-287.9743957519532	987.0427246093752	-1545.913940429688	-186.4602508544922	960.543640136719	-1577.206665039063	-292.7108154296876	1567.158813476563	-1033.95361328125	-341.2532348632813	1390.510009765625	-892.9238281250002	-292.5202941894532	1388.239379882813	-880.7663574218752	-312.3606262207032	1340.996704101563	-851.623718261719	-298.8737182617188	1302.999877929688	-827.1705322265627	-307.2247009277344	1248.157836914063	-899.624206542969	-90.79351043701173	1133.4951171875	-827.0813598632815	-137.4558868408203	1109.95068359375	-770.931091308594	-28.63340950012208	1101.165405273438	-793.2841796875002	-223.381332397461	1045.2568359375	-1207.355590820313	-227.4511871337891	1071.1669921875	-983.076599121094	-400.9731445312501	1133.337646484375	-1101.592163085938	-417.0815734863282	1105.121337890625	-1124.645874023438	-417.7317810058595	1111.136840820313	-1070.853149414063	-338.9499816894532	838.5699462890627	-1250.145629882813	-298.8025817871094	763.9454345703126	-1240.701538085938	-250.8628997802735	769.9676513671877	-1233.1962890625	-324.1722717285157	710.4639892578126	-1225.170532226563	-303.2189941406251	532.1899414062501	-1196.763793945313	-288.3101806640626	523.8656005859376	-1078.15673828125	-286.2410888671876	342.8786010742188	-1125.33056640625	-341.1116638183594	298.6662902832032	-1181.630859375	-302.1089782714844	294.3160095214844	-1157.2841796875	-309.4655456542969	221.0171813964844	-1116.539672851563	-377.2612915039063	125.1207046508789	-1145.2763671875	-339.8093872070313	142.8231658935547	-1065.75244140625	-443.3081054687501	112.4603652954102	-1100.166870117188	-239.1834259033204	69.28012847900392	-1058.473876953125	-228.170639038086	56.7435646057129	-1100.974365234375	-272.9438781738282	34.44154739379884	-1156.105102539063	-327.0115356445313	820.8850708007815	-862.7744140625002	-281.9784240722657	773.9824218750002	-846.7510375976565	-249.6811523437501	778.1912231445315	-851.0432739257815	-300.3576660156251	690.5878906250001	-844.1186523437502	-309.3653564453126	592.3919677734376	-836.6802368164065	-276.5456237792969	539.5780639648439	-933.2571411132815	-407.9417419433595	463.5333862304689	-836.047546386719	-515.6922607421876	479.0663146972657	-865.3147583007815	-492.7344970703126	444.285125732422	-843.5794067382815	-508.838348388672	389.2308349609376	-861.3803710937502	-637.3051757812501	355.8322753906251	-877.832702636719	-581.1123657226564	329.2801818847657	-936.0926513671877	-678.9111938476564	370.6281433105469	-950.932067871094	-572.7052001953126	191.9302673339844	-891.9810791015627	-587.3515014648439	196.9738006591797	-842.1796875000002	-645.4559936523439	222.9853820800782	-821.0607910156252	-4217.379882812501	853.2076416015627	-3944.673339843751	
